0
SECTION
2
HEADER
9
$INSUNITS
70
4
9
$ACADVER
1
AC1014
9
$HANDSEED
5
FFFF
0
ENDSEC
0
SECTION
2
TABLES
0
TABLE
2
VPORT
5
8
100
AcDbSymbolTable
0
ENDTAB
0
TABLE
2
LTYPE
5
5
100
AcDbSymbolTable
0
LTYPE
5
14
100
AcDbSymbolTableRecord
100
AcDbLinetypeTableRecord
2
BYBLOCK
70
0
0
LTYPE
5
15
100
AcDbSymbolTableRecord
100
AcDbLinetypeTableRecord
2
BYLAYER
70
0
0
ENDTAB
0
TABLE
2
LAYER
5
2
100
AcDbSymbolTable
70
2
0
LAYER
5
50
100
AcDbSymbolTableRecord
100
AcDbLayerTableRecord
2
0
70
0
6
CONTINUOUS
0
ENDTAB
0
TABLE
2
STYLE
5
3
100
AcDbSymbolTable
70
1
0
STYLE
5
11
100
AcDbSymbolTableRecord
100
AcDbTextStyleTableRecord
2
STANDARD
70
0
0
ENDTAB
0
TABLE
2
VIEW
5
6
100
AcDbSymbolTable
70
0
0
ENDTAB
0
TABLE
2
UCS
5
7
100
AcDbSymbolTable
70
0
0
ENDTAB
0
TABLE
2
APPID
5
9
100
AcDbSymbolTable
70
2
0
APPID
5
12
100
AcDbSymbolTableRecord
100
AcDbRegAppTableRecord
2
ACAD
70
0
0
ENDTAB
0
TABLE
2
DIMSTYLE
5
A
100
AcDbSymbolTable
70
1
0
ENDTAB
0
TABLE
2
BLOCK_RECORD
5
1
100
AcDbSymbolTable
70
1
0
BLOCK_RECORD
5
1F
100
AcDbSymbolTableRecord
100
AcDbBlockTableRecord
2
*MODEL_SPACE
0
BLOCK_RECORD
5
1B
100
AcDbSymbolTableRecord
100
AcDbBlockTableRecord
2
*PAPER_SPACE
0
ENDTAB
0
ENDSEC
0
SECTION
2
BLOCKS
0
BLOCK
5
20
100
AcDbEntity
100
AcDbBlockBegin
2
*MODEL_SPACE
0
ENDBLK
5
21
100
AcDbEntity
100
AcDbBlockEnd
0
BLOCK
5
1C
100
AcDbEntity
100
AcDbBlockBegin
2
*PAPER_SPACE
0
ENDBLK
5
1D
100
AcDbEntity
100
AcDbBlockEnd
0
ENDSEC
0
SECTION
2
ENTITIES
0
LWPOLYLINE
5
100
100
AcDbEntity
8
0
100
AcDbPolyline
90
14
70
1
43
0.0
10
25.062620793097675
20
320.99654990551068
42
0.28162992443903234
10
26.559990538524207
20
319.54210220112748
42
-0.1105469166233628
10
74.229736368987943
20
296.98242182861895
42
-0.23113319184389411
10
74.999999999999957
20
295.40516203302781
10
74.999999999999957
20
292.14576775235292
42
0.28957050725899885
10
76.142061281337007
20
290.33912967154674
42
-4.4369580227578282
10
-76.142061281337163
20
290.33912967154669
42
0.28957050725899186
10
-75.000000000000085
20
292.14576775235281
10
-75.000000000000057
20
295.40516203302781
42
-0.23113319184389317
10
-74.229736368987972
20
296.98242182861878
42
-0.11054691662336258
10
-26.559990538524385
20
319.54210220112748
42
0.28162992443897955
10
-25.062620793097814
20
320.99654990551073
42
-0.34249617607458588
10
-23.125241586195528
20
322.49999999999989
10
23.125241586195425
20
322.49999999999989
42
-0.34249617607463273
0
LWPOLYLINE
5
101
100
AcDbEntity
8
0
100
AcDbPolyline
90
24
70
1
43
0.0
10
300.00000000000006
20
357.49999999999989
42
0.41421356237308982
10
298.00000000000006
20
359.49999999999989
10
261.50000000000006
20
359.49999999999989
42
-0.41421356237309503
10
259.50000000000006
20
361.49999999999989
10
259.50000000000006
20
397.99999999999983
42
0.41421356237310542
10
257.50000000000006
20
399.99999999999989
10
-257.49999999999994
20
399.99999999999989
42
0.41421356237310542
10
-259.49999999999989
20
397.99999999999983
10
-259.49999999999989
20
361.49999999999983
42
-0.41421356237309503
10
-261.49999999999989
20
359.49999999999983
10
-298
20
359.49999999999983
42
0.41421356237307422
10
-300
20
357.49999999999977
10
-300.00000000000011
20
-357.49999999999994
42
0.41421356237309503
10
-298.00000000000011
20
-359.49999999999989
10
-261.50000000000006
20
-359.49999999999989
42
-0.41421356237309503
10
-259.50000000000006
20
-361.49999999999983
10
-259.50000000000006
20
-397.99999999999983
42
0.41421356237310542
10
-257.50000000000006
20
-399.99999999999989
10
257.50000000000006
20
-400.00000000000011
42
0.41421356237310025
10
259.5
20
-398.00000000000011
10
259.49999999999994
20
-361.50000000000011
42
-0.41421356237309503
10
261.5
20
-359.50000000000011
10
298.00000000000011
20
-359.50000000000011
42
0.41421356237310542
10
300.00000000000006
20
-357.5
0
CIRCLE
5
102
100
AcDbEntity
8
0
100
AcDbCircle
10
167.5137382847326
20
212.8576954310999
30
0
40
3.4000000000000004
210
0
220
-0
230
1
0
CIRCLE
5
103
100
AcDbEntity
8
0
100
AcDbCircle
10
-167.51373642203748
20
212.85769435567227
30
0
40
3.4000000000000004
210
0
220
-0
230
1
0
CIRCLE
5
104
100
AcDbEntity
8
0
100
AcDbCircle
10
-11.999999999999964
20
-56.499997386300471
30
0
40
3.4000000000000004
210
0
220
-0
230
1
0
CIRCLE
5
105
100
AcDbEntity
8
0
100
AcDbCircle
10
12.000000000000043
20
-56.500002613699856
30
0
40
3.4000000000000004
210
0
220
-0
230
1
0
CIRCLE
5
106
100
AcDbEntity
8
0
100
AcDbCircle
10
-155.51373918955815
20
233.64230564432739
30
0
40
3.4000000000000004
210
0
220
-0
230
1
0
CIRCLE
5
107
100
AcDbEntity
8
0
100
AcDbCircle
10
155.51373732686275
20
233.64230456890002
30
0
40
3.4000000000000004
210
0
220
-0
230
1
0
ENDSEC
0
SECTION
2
OBJECTS
0
DICTIONARY
5
C
100
AcDbDictionary
3
ACAD_GROUP
350
D
3
ACAD_MLINESTYLE
350
17
0
DICTIONARY
5
D
100
AcDbDictionary
0
DICTIONARY
5
1A
330
C
100
AcDbDictionary
0
DICTIONARY
5
17
100
AcDbDictionary
0
ENDSEC
0
EOF
