0
SECTION
2
HEADER
9
$INSUNITS
70
4
9
$ACADVER
1
AC1014
9
$HANDSEED
5
FFFF
0
ENDSEC
0
SECTION
2
TABLES
0
TABLE
2
VPORT
5
8
100
AcDbSymbolTable
0
ENDTAB
0
TABLE
2
LTYPE
5
5
100
AcDbSymbolTable
0
LTYPE
5
14
100
AcDbSymbolTableRecord
100
AcDbLinetypeTableRecord
2
BYBLOCK
70
0
0
LTYPE
5
15
100
AcDbSymbolTableRecord
100
AcDbLinetypeTableRecord
2
BYLAYER
70
0
0
ENDTAB
0
TABLE
2
LAYER
5
2
100
AcDbSymbolTable
70
2
0
LAYER
5
50
100
AcDbSymbolTableRecord
100
AcDbLayerTableRecord
2
0
70
0
6
CONTINUOUS
0
ENDTAB
0
TABLE
2
STYLE
5
3
100
AcDbSymbolTable
70
1
0
STYLE
5
11
100
AcDbSymbolTableRecord
100
AcDbTextStyleTableRecord
2
STANDARD
70
0
0
ENDTAB
0
TABLE
2
VIEW
5
6
100
AcDbSymbolTable
70
0
0
ENDTAB
0
TABLE
2
UCS
5
7
100
AcDbSymbolTable
70
0
0
ENDTAB
0
TABLE
2
APPID
5
9
100
AcDbSymbolTable
70
2
0
APPID
5
12
100
AcDbSymbolTableRecord
100
AcDbRegAppTableRecord
2
ACAD
70
0
0
ENDTAB
0
TABLE
2
DIMSTYLE
5
A
100
AcDbSymbolTable
70
1
0
ENDTAB
0
TABLE
2
BLOCK_RECORD
5
1
100
AcDbSymbolTable
70
1
0
BLOCK_RECORD
5
1F
100
AcDbSymbolTableRecord
100
AcDbBlockTableRecord
2
*MODEL_SPACE
0
BLOCK_RECORD
5
1B
100
AcDbSymbolTableRecord
100
AcDbBlockTableRecord
2
*PAPER_SPACE
0
ENDTAB
0
ENDSEC
0
SECTION
2
BLOCKS
0
BLOCK
5
20
100
AcDbEntity
100
AcDbBlockBegin
2
*MODEL_SPACE
0
ENDBLK
5
21
100
AcDbEntity
100
AcDbBlockEnd
0
BLOCK
5
1C
100
AcDbEntity
100
AcDbBlockBegin
2
*PAPER_SPACE
0
ENDBLK
5
1D
100
AcDbEntity
100
AcDbBlockEnd
0
ENDSEC
0
SECTION
2
ENTITIES
0
LWPOLYLINE
5
100
100
AcDbEntity
8
0
100
AcDbPolyline
90
38
70
1
43
0.0
10
-162.99156997739885
20
81.776445386902083
42
0.4142135623730806
10
-162.7459943694609
20
80.383716906262052
10
-77.055839475334551
20
20.382824499037049
42
0.4142135623730912
10
-75.66311099469452
20
20.628400106974972
10
-67.633040885779835
20
32.09652872702091
10
-51.25
20
20.624999999999993
10
-51.25
20
15.624999999999991
10
-65.249999999999986
20
15.624999999999993
42
0.41421356237309503
10
-66.249999999999986
20
14.624999999999993
10
-66.249999999999986
20
-14.625000000000002
42
0.41421356237309437
10
-65.249999999999986
20
-15.624999999999996
10
-51.249999999999986
20
-15.625
10
-51.249999999999964
20
-20.625
10
-49.249999999999957
20
-20.625
10
-49.249999999999957
20
-34.625
42
0.41421356237309243
10
-48.249999999999957
20
-35.625000000000007
10
48.250000000000014
20
-35.625
42
0.41421356237309503
10
49.250000000000007
20
-34.625
10
49.250000000000007
20
-20.625
10
51.250000000000007
20
-20.625
10
51.250000000000007
20
-15.625
10
65.250000000000014
20
-15.625
42
0.41421356237309503
10
66.250000000000014
20
-14.625
10
66.250000000000014
20
14.624999999999995
42
0.41421356237309503
10
65.250000000000014
20
15.624999999999991
10
51.250000000000007
20
15.624999999999991
10
51.250000000000014
20
20.625
10
67.63304088577982
20
32.096528727020953
10
75.663110994694492
20
20.628400106975064
42
0.41421356237309359
10
77.055839475334537
20
20.382824499037113
10
162.74681144368682
20
80.384289027794281
42
0.41421356237309503
10
162.99238705162477
20
81.777017508434312
10
154.96231694271006
20
93.245146128480215
10
162.87789294136243
20
98.787692112008472
10
162.87789294136243
20
99.375000000000156
10
-162.876675263327
20
99.375000000000028
10
-162.87789294135254
20
98.787692112001508
10
-154.9614998684842
20
93.244574006947957
0
CIRCLE
5
101
100
AcDbEntity
8
0
100
AcDbCircle
10
-114.2099607052225
20
55.554229675472982
30
0
40
2
210
0
220
-0
230
1
0
CIRCLE
5
102
100
AcDbEntity
8
0
100
AcDbCircle
10
-58.749999999999993
20
9.6249999999999893
30
0
40
2
210
0
220
-0
230
1
0
CIRCLE
5
103
100
AcDbEntity
8
0
100
AcDbCircle
10
-39.249999999999957
20
-28.125
30
0
40
2
210
0
220
-0
230
1
0
CIRCLE
5
104
100
AcDbEntity
8
0
100
AcDbCircle
10
39.250000000000007
20
-28.125
30
0
40
2
210
0
220
-0
230
1
0
CIRCLE
5
105
100
AcDbEntity
8
0
100
AcDbCircle
10
58.750000000000007
20
9.6249999999999893
30
0
40
2
210
0
220
-0
230
1
0
CIRCLE
5
106
100
AcDbEntity
8
0
100
AcDbCircle
10
114.21077777944836
20
55.554801797005283
30
0
40
2
210
0
220
-0
230
1
0
CIRCLE
5
107
100
AcDbEntity
8
0
100
AcDbCircle
10
146.97685955100803
20
78.497859251047103
30
0
40
2
210
0
220
-0
230
1
0
CIRCLE
5
108
100
AcDbEntity
8
0
100
AcDbCircle
10
84.222144822747566
20
34.556534940119199
30
0
40
2
210
0
220
-0
230
1
0
CIRCLE
5
109
100
AcDbEntity
8
0
100
AcDbCircle
10
58.750000000000007
20
-9.625
30
0
40
2
210
0
220
-0
230
1
0
CIRCLE
5
110
100
AcDbEntity
8
0
100
AcDbCircle
10
2.6645352591003757e-14
20
-28.125
30
0
40
2
210
0
220
-0
230
1
0
CIRCLE
5
111
100
AcDbEntity
8
0
100
AcDbCircle
10
-58.749999999999993
20
-9.625
30
0
40
2
210
0
220
-0
230
1
0
CIRCLE
5
112
100
AcDbEntity
8
0
100
AcDbCircle
10
-84.222144822747566
20
34.556534940119171
30
0
40
2
210
0
220
-0
230
1
0
CIRCLE
5
113
100
AcDbEntity
8
0
100
AcDbCircle
10
-146.9760424767822
20
78.497287129514817
30
0
40
2
210
0
220
-0
230
1
0
LINE
5
114
100
AcDbEntity
8
0
100
AcDbLine
10
-67.633040885779835
20
32.09652872702091
30
0
11
67.63304088577982
21
32.096528727020953
31
0
0
LINE
5
115
100
AcDbEntity
8
0
100
AcDbLine
10
-154.9614998684842
20
93.244574006947957
30
0
11
-154.9614998684842
21
99.375000000000028
31
0
0
LINE
5
116
100
AcDbEntity
8
0
100
AcDbLine
10
154.96231694271006
20
93.245146128480215
30
0
11
154.96231694271006
21
99.375000000000156
31
0
0
ENDSEC
0
SECTION
2
OBJECTS
0
DICTIONARY
5
C
100
AcDbDictionary
3
ACAD_GROUP
350
D
3
ACAD_MLINESTYLE
350
17
0
DICTIONARY
5
D
100
AcDbDictionary
0
DICTIONARY
5
1A
330
C
100
AcDbDictionary
0
DICTIONARY
5
17
100
AcDbDictionary
0
ENDSEC
0
EOF
